<?xml version="1.0" standalone="no"?>
<!DOCTYPE svg PUBLIC "-//W3C//DTD SVG 20010904//EN"
 "http://www.w3.org/TR/2001/REC-SVG-20010904/DTD/svg10.dtd">
<svg version="1.0" xmlns="http://www.w3.org/2000/svg"
 width="750.000000pt" height="731.000000pt" viewBox="0 0 750.000000 731.000000"
 preserveAspectRatio="xMidYMid meet">

<g transform="translate(0.000000,731.000000) scale(0.100000,-0.100000)"
fill="#000000" stroke="none">
<path d="M3527 6871 c-40 -44 -107 -156 -144 -239 -14 -31 -33 -75 -43 -97
-121 -271 -201 -731 -181 -1043 4 -65 3 -92 -5 -92 -6 0 -135 61 -285 136
-151 75 -323 160 -384 189 -60 29 -303 148 -539 264 -255 125 -440 211 -457
211 -18 0 -32 -7 -39 -19 -5 -11 -10 -78 -10 -150 0 -72 -2 -131 -5 -131 -3 0
-43 16 -90 35 -49 21 -94 33 -105 30 -30 -10 -40 -60 -40 -206 l0 -138 -115
41 c-110 39 -116 40 -140 24 l-25 -16 0 -2040 c0 -1788 2 -2040 15 -2053 8 -9
104 -45 212 -80 109 -36 650 -215 1203 -397 553 -183 1055 -354 1116 -381 62
-27 125 -49 142 -49 16 0 76 21 133 46 57 26 651 227 1319 448 1087 359 1216
404 1227 426 17 34 19 4020 2 4068 -6 17 -19 34 -29 37 -15 5 -111 -24 -213
-64 -16 -6 -30 -11 -33 -11 -2 0 -4 72 -4 160 l0 160 -26 16 c-25 17 -28 16
-102 -15 -42 -18 -83 -35 -89 -38 -10 -4 -13 25 -13 124 0 141 -10 173 -55
173 -13 0 -331 -151 -707 -336 -376 -185 -742 -364 -813 -399 l-131 -62 4 186
c5 205 -8 314 -55 496 -69 264 -264 683 -371 798 -39 41 -81 37 -125 -12z
m-1197 -1127 c454 -223 829 -409 834 -414 4 -4 15 -48 23 -97 38 -220 132
-464 248 -638 67 -101 124 -155 164 -155 55 0 160 137 264 345 92 184 123 265
167 440 l28 110 828 408 c455 224 831 407 836 407 4 0 8 -335 8 -745 l0 -745
-470 -235 c-258 -129 -474 -235 -479 -235 -5 0 10 42 34 94 112 238 195 576
197 802 3 195 -44 206 -307 70 -335 -174 -620 -399 -790 -625 -133 -177 -256
-434 -306 -641 -22 -90 -24 -93 -32 -60 -17 73 -97 309 -127 374 -171 383
-501 701 -985 952 -263 136 -310 125 -307 -70 2 -228 84 -559 199 -809 172
-371 392 -656 666 -861 191 -143 480 -268 541 -234 10 6 29 5 51 -3 l35 -13
-2 -486 -3 -485 -30 -109 c-28 -104 -30 -108 -38 -75 -91 366 -252 655 -498
894 -169 164 -388 317 -626 438 -252 128 -298 116 -295 -77 1 -141 36 -340 88
-516 149 -494 482 -967 847 -1205 190 -123 410 -207 482 -184 6 1 25 -1 43 -5
l32 -8 0 -274 0 -274 -57 0 c-57 0 -69 7 -1078 554 l-1020 554 -3 2121 c-1
1167 1 2121 6 2121 4 0 378 -183 832 -406z m-892 -1877 l2 -1976 28 -21 c15
-12 266 -151 557 -309 1132 -612 1394 -755 1391 -758 -2 -2 -487 214 -1077
480 l-1074 483 -3 2076 -2 2076 87 -37 88 -38 3 -1976z m4510 -2100 c-26 -16
-2122 -957 -2125 -953 -2 2 427 237 954 522 526 285 966 526 977 535 l21 17 5
1978 5 1978 85 37 85 36 3 -2071 c2 -1665 0 -2073 -10 -2079z m-4753 3803 c3
0 5 -854 5 -1897 0 -1487 3 -1903 13 -1922 9 -18 189 -103 825 -389 447 -201
811 -367 809 -368 -2 -2 -424 135 -938 304 l-934 309 -3 2021 -2 2021 110 -40
c61 -21 113 -39 115 -39z m5038 -3961 c-10 -9 -1864 -622 -1868 -617 -2 2 361
167 807 368 447 201 818 371 825 378 11 11 13 352 13 1920 l0 1907 113 40 112
40 3 -2014 c1 -1108 -1 -2018 -5 -2022z"/>
</g>
</svg>
