<?xml version="1.0" standalone="no"?>
<!DOCTYPE svg PUBLIC "-//W3C//DTD SVG 20010904//EN"
 "http://www.w3.org/TR/2001/REC-SVG-20010904/DTD/svg10.dtd">
<svg version="1.0" xmlns="http://www.w3.org/2000/svg"
 width="2000.000000pt" height="2000.000000pt" viewBox="0 0 2000.000000 2000.000000"
 preserveAspectRatio="xMidYMid meet">

<g transform="translate(0.000000,2000.000000) scale(0.100000,-0.100000)"
fill="#000000" stroke="none">
<path d="M9725 17263 c-2560 -48 -5017 -880 -6785 -2296 -320 -257 -712 -626
-972 -917 -1297 -1448 -1853 -3182 -1577 -4920 123 -776 419 -1540 869 -2248
1129 -1773 3164 -3132 5635 -3762 738 -188 1491 -305 2325 -362 260 -17 1284
-18 1550 0 2117 139 4022 743 5585 1770 1516 996 2569 2290 3044 3742 357
1091 371 2230 41 3335 -225 754 -642 1523 -1184 2185 -235 286 -619 682 -901
929 -1485 1300 -3511 2163 -5735 2445 -212 27 -548 60 -785 76 -178 12 -774
31 -895 28 -47 -1 -143 -3 -215 -5z m70 -455 c-15 -90 -53 -137 -126 -160 -78
-23 -160 26 -194 115 -10 26 -16 50 -13 52 2 3 18 8 35 11 28 5 32 3 49 -33
15 -30 27 -40 57 -48 59 -14 99 15 121 88 4 12 16 17 42 17 l36 0 -7 -42z
m169 -235 c3 -21 13 -123 21 -228 9 -104 26 -304 38 -443 20 -224 21 -253 7
-257 -22 -6 -129 -10 -134 -4 -3 2 -17 139 -31 304 -15 165 -28 301 -29 302
-1 1 -57 -137 -125 -307 -69 -170 -128 -315 -132 -322 -8 -13 -149 -30 -160
-19 -4 3 -23 200 -43 436 -20 237 -39 449 -42 472 -7 48 -3 50 91 55 l60 3 7
-85 c28 -322 39 -451 44 -494 6 -49 6 -49 131 270 69 175 129 324 135 331 5 7
35 14 66 16 31 2 64 4 74 5 12 1 18 -8 22 -35z m-770 -75 c6 -47 35 -374 67
-761 7 -75 10 -139 8 -141 -2 -2 -38 -6 -80 -9 l-76 -7 -6 73 c-4 39 -22 253
-42 475 -19 222 -35 405 -35 407 0 6 44 12 101 14 l57 1 6 -52z m2046 31 c110
-24 203 -119 246 -254 48 -149 31 -379 -38 -523 -37 -78 -110 -155 -176 -185
-68 -31 -196 -30 -270 2 -94 42 -166 145 -186 267 l-7 41 73 21 c94 28 98 28
98 -8 0 -63 45 -137 102 -166 39 -20 107 -17 145 5 37 23 75 85 97 159 11 40
12 54 3 57 -7 2 -61 6 -121 9 -60 3 -111 8 -113 10 -9 9 13 161 22 160 6 -1
61 -5 123 -8 129 -8 123 -13 97 89 -30 113 -85 165 -177 165 -57 0 -107 -34
-139 -94 -13 -25 -29 -46 -36 -46 -16 0 -126 40 -136 50 -5 4 5 37 22 73 71
148 205 212 371 176z m-2835 -51 c2 -7 11 -91 20 -187 8 -96 17 -177 20 -179
2 -3 64 0 137 7 152 13 212 4 273 -43 77 -59 124 -195 106 -308 -18 -106 -77
-182 -162 -207 -35 -11 -460 -53 -466 -47 -5 5 -84 921 -81 941 3 17 13 21 68
26 36 3 69 6 73 7 4 1 10 -4 12 -10z m3471 -29 c32 -7 62 -15 66 -18 6 -5 -39
-266 -66 -383 -6 -27 37 -23 71 6 15 13 50 65 78 116 56 105 111 172 154 190
29 11 163 11 175 -1 4 -4 -1 -36 -19 -116 -5 -20 -11 -22 -54 -20 -63 3 -81
-13 -146 -134 -34 -62 -62 -101 -87 -119 l-37 -27 29 -28 c17 -16 38 -54 50
-89 23 -70 92 -407 85 -414 -8 -8 -154 20 -169 32 -9 7 -25 71 -41 166 -14 85
-33 176 -41 202 -15 47 -61 96 -74 81 -4 -4 -24 -97 -45 -205 -20 -109 -41
-198 -47 -198 -30 0 -148 24 -148 30 0 5 41 216 90 469 50 254 90 464 90 466
0 8 22 6 86 -6z m-3897 -51 c6 -29 29 -147 51 -263 23 -115 59 -300 80 -410
22 -110 40 -205 40 -211 0 -9 -110 -34 -148 -34 -6 0 -27 89 -47 198 -21 108
-41 200 -44 203 -6 6 -289 -46 -298 -55 -2 -2 12 -84 31 -182 19 -99 36 -190
38 -204 3 -23 -1 -25 -70 -38 -40 -8 -75 -12 -78 -9 -4 3 -17 59 -29 124 -103
524 -146 749 -148 780 l-2 37 60 12 c33 7 67 13 76 14 12 0 22 -36 48 -177 19
-98 36 -181 40 -184 6 -6 289 46 298 54 2 3 -12 85 -31 183 -20 98 -33 180
-30 183 7 7 100 28 131 30 18 1 23 -7 32 -51z m-743 -571 c73 -252 128 -460
123 -463 -11 -6 -143 -44 -145 -41 -1 1 -27 90 -58 197 -31 107 -59 196 -61
198 -5 5 -268 -67 -285 -78 -6 -4 11 -77 45 -198 30 -105 55 -195 55 -200 0
-12 -143 -53 -151 -44 -7 9 -259 892 -259 909 0 12 138 59 146 50 2 -2 27 -82
55 -178 28 -95 52 -175 54 -177 3 -3 287 77 292 82 2 1 -20 82 -48 180 -28 98
-49 180 -46 182 8 8 131 43 142 40 6 -2 69 -208 141 -459z m5625 419 c185 -56
280 -206 266 -421 -15 -234 -125 -441 -277 -521 -49 -26 -65 -29 -150 -29 -85
0 -102 3 -161 31 -175 83 -243 260 -193 502 45 217 152 375 295 433 54 22 157
24 220 5z m647 -198 c28 -11 52 -21 52 -23 0 -2 -27 -81 -60 -176 -33 -94 -58
-174 -56 -177 3 -2 68 -26 146 -53 101 -35 142 -45 145 -36 3 6 30 84 60 171
31 87 58 162 60 166 6 10 150 -44 148 -56 -4 -19 -304 -889 -309 -893 -6 -6
-142 37 -147 47 -3 4 26 94 63 200 59 169 65 194 51 201 -28 14 -272 93 -276
89 -2 -2 -33 -88 -69 -192 -36 -104 -67 -191 -70 -193 -8 -8 -137 38 -142 51
-3 8 242 738 301 894 5 14 14 13 103 -20z m-7219 -10 c5 -13 18 -46 29 -74
l21 -51 -192 -73 c-106 -40 -195 -76 -199 -79 -11 -10 65 -202 77 -197 40 18
349 136 354 136 13 0 64 -141 55 -150 -5 -4 -88 -38 -185 -75 l-176 -67 45
-116 c25 -64 47 -119 48 -121 2 -2 94 31 205 73 111 43 205 74 209 69 4 -4 19
-38 32 -75 23 -60 24 -67 9 -73 -113 -46 -533 -205 -540 -205 -11 0 -354 894
-344 898 4 1 123 47 263 102 140 54 261 99 268 99 7 1 16 -9 21 -21z m-794
-347 c47 -21 110 -88 132 -140 22 -50 22 -147 0 -190 -22 -43 -22 -41 11 -41
39 -1 102 -33 139 -71 54 -57 78 -122 78 -214 0 -70 -4 -86 -28 -127 -17 -29
-44 -57 -70 -72 -70 -41 -420 -187 -428 -179 -4 4 -50 109 -102 233 -52 124
-134 316 -181 428 -47 112 -86 207 -86 212 0 4 71 38 158 76 254 109 301 120
377 85z m9053 -32 c101 -34 180 -112 223 -219 9 -22 14 -72 13 -135 0 -82 -5
-114 -28 -180 -96 -280 -299 -451 -493 -415 -120 22 -225 96 -272 193 -60 122
-50 274 30 445 87 189 200 298 339 328 63 14 112 9 188 -17z m-9726 -278 l38
-70 -33 -19 c-17 -11 -62 -36 -99 -57 -38 -20 -68 -39 -68 -41 0 -3 83 -155
185 -338 101 -183 187 -339 190 -348 5 -12 -54 -53 -126 -86 -4 -2 -93 154
-199 345 -106 191 -193 349 -194 350 -1 1 -44 -23 -96 -52 -52 -30 -99 -54
-105 -55 -5 0 -27 31 -48 69 l-37 69 267 150 c148 83 273 150 278 151 6 0 27
-30 47 -68z m10426 -61 c41 -24 76 -49 79 -56 4 -11 -186 -588 -202 -615 -18
-28 18 7 151 149 81 86 183 194 226 239 l79 82 95 -56 c51 -30 97 -59 100 -65
5 -7 -460 -794 -484 -820 -4 -4 -32 8 -62 27 -30 19 -58 36 -63 37 -4 2 70
131 164 288 237 395 220 364 168 307 -24 -26 -138 -151 -254 -277 -115 -126
-213 -229 -217 -229 -15 -2 -128 72 -128 83 0 7 13 48 29 92 23 63 178 506
206 589 4 11 -77 -119 -180 -290 -103 -170 -188 -312 -190 -314 -5 -5 -113 58
-121 70 -5 8 439 764 479 817 8 10 14 10 31 -1 12 -8 54 -33 94 -57z m-4753
-40 c2103 -124 4002 -1005 5160 -2395 1096 -1315 1382 -2945 784 -4465 -70
-179 -253 -540 -364 -720 -1002 -1617 -2975 -2728 -5235 -2950 -2359 -230
-4680 521 -6149 1990 -1295 1295 -1746 2973 -1229 4570 515 1593 1983 2929
3921 3569 669 221 1382 357 2092 400 202 12 821 12 1020 1z m-6408 -355 c29
-13 68 -36 88 -50 l35 -27 -47 -60 c-26 -32 -51 -62 -55 -64 -5 -3 -22 6 -38
20 -54 45 -142 47 -199 5 -72 -53 -84 -154 -32 -265 36 -78 116 -189 168 -235
103 -90 220 -90 280 0 27 40 31 122 8 186 -8 21 -13 40 -12 41 1 1 37 11 80
22 l78 20 10 -26 c6 -15 17 -58 25 -95 33 -154 -35 -286 -180 -353 -143 -66
-283 -27 -432 121 -141 140 -218 300 -219 455 0 73 4 93 28 142 30 61 103 134
162 162 83 39 165 40 252 1z m11982 -115 c30 -21 56 -41 58 -44 3 -2 -78 -114
-179 -248 -101 -133 -185 -246 -186 -251 -2 -4 137 63 310 149 l314 157 62
-48 c34 -27 62 -51 62 -53 0 -7 -536 -720 -561 -746 -17 -19 -19 -18 -77 25
l-60 45 179 239 c99 132 183 243 185 247 7 10 -27 -6 -350 -165 -142 -70 -265
-126 -273 -123 -7 3 -38 24 -68 47 -50 37 -54 44 -43 60 49 70 564 749 569
749 3 0 29 -18 58 -40z m-12632 -366 c133 -64 227 -246 193 -374 -12 -47 -74
-115 -185 -206 l-49 -40 107 -137 c59 -75 107 -141 107 -145 0 -5 -27 -30 -60
-55 l-59 -46 -267 342 c-147 188 -281 359 -297 380 -18 22 -27 41 -21 46 38
34 293 225 318 238 75 39 128 38 213 -3z m13304 -150 c30 -26 56 -48 58 -50 2
-2 -36 -49 -85 -104 -136 -155 -164 -196 -164 -243 0 -52 35 -98 103 -137 90
-52 94 -50 246 126 l133 154 59 -51 c33 -28 59 -53 59 -55 0 -6 -621 -719
-628 -721 -4 -2 -33 21 -65 50 l-58 52 126 143 c69 78 125 144 125 147 0 3 -7
5 -15 5 -38 0 -130 53 -180 104 -88 91 -107 190 -54 292 23 42 266 334 279
334 3 0 31 -21 61 -46z m-13809 -670 c233 -108 439 -203 459 -212 l37 -17 -58
-64 -58 -65 -101 47 c-56 26 -103 47 -106 47 -5 0 -134 -134 -184 -191 l-31
-37 55 -93 c30 -51 55 -95 55 -98 0 -4 -24 -33 -54 -66 -35 -39 -57 -56 -63
-50 -6 6 -99 170 -208 365 -109 195 -217 388 -241 429 l-42 74 56 64 c30 35
57 63 58 63 1 0 193 -88 426 -196z m14627 -124 l191 -220 -39 -35 c-22 -20
-50 -44 -63 -54 l-23 -19 -138 159 c-115 132 -141 157 -155 149 -9 -5 -46 -36
-81 -68 l-65 -59 125 -142 c68 -78 125 -146 127 -151 2 -5 -16 -26 -39 -47
-81 -73 -63 -80 -204 82 -70 80 -130 145 -133 145 -4 0 -49 -36 -100 -81 -57
-50 -89 -85 -85 -92 4 -7 67 -81 141 -165 73 -84 132 -156 130 -161 -5 -13
-111 -102 -119 -99 -6 3 -318 359 -368 420 -13 16 -22 31 -20 32 66 59 721
626 724 626 1 0 89 -99 194 -220z m-14865 -639 l17 29 152 -102 c84 -56 154
-103 156 -105 2 -1 -12 -28 -33 -58 l-36 -55 -85 57 c-73 48 -88 54 -99 42
-13 -14 -266 -388 -266 -393 0 -2 38 -29 85 -60 l85 -57 -17 -30 c-10 -16 -27
-41 -38 -55 l-20 -25 -145 97 c-80 53 -149 100 -153 104 -5 4 -1 20 8 34 21
31 16 41 -65 129 -73 80 -183 170 -367 298 -87 61 -158 117 -157 123 1 6 67
109 148 228 l147 218 333 -225 332 -224 18 30z m15256 53 c75 -22 168 -115
199 -199 40 -106 22 -202 -59 -313 l-31 -43 -57 47 c-31 26 -61 51 -66 55 -5
4 3 21 17 38 14 17 31 47 37 67 33 99 -54 204 -168 204 -87 0 -243 -84 -345
-187 -58 -57 -75 -88 -83 -145 -7 -56 27 -124 75 -152 42 -24 120 -25 176 -2
21 9 39 15 40 14 5 -7 35 -138 35 -152 0 -22 -102 -50 -185 -50 -121 0 -217
62 -275 176 -25 51 -30 73 -30 134 0 136 70 258 211 366 174 136 358 187 509
142z m-16088 -630 c296 -319 339 -372 359 -442 11 -40 10 -46 -21 -108 -17
-36 -38 -68 -45 -70 -7 -3 -40 8 -74 25 l-61 31 27 54 c23 48 25 58 14 84 -7
16 -27 43 -44 59 l-32 30 -335 22 c-184 12 -352 25 -372 28 l-38 6 42 76 c22
42 42 77 43 79 1 1 113 -11 249 -28 136 -16 252 -30 259 -30 6 0 -71 83 -171
183 l-184 184 37 72 c29 59 39 70 50 61 7 -6 141 -148 297 -316z m16605 -168
c-3 -6 -84 -47 -181 -91 -96 -44 -176 -86 -176 -92 0 -7 11 -20 25 -29 21 -13
40 -15 103 -10 236 19 254 19 302 -6 33 -17 54 -38 78 -78 17 -30 32 -58 32
-62 0 -4 -28 -22 -61 -39 -49 -24 -64 -28 -70 -17 -5 7 -9 15 -9 18 0 3 -11
18 -25 33 -30 32 -64 34 -206 15 -78 -10 -94 -10 -123 5 -38 18 -46 14 -46
-20 0 -34 -31 -90 -85 -152 -78 -91 -238 -261 -245 -261 -4 0 -23 37 -43 81
l-37 81 117 122 c145 151 173 189 173 233 0 18 -4 33 -8 33 -5 0 -89 -38 -188
-85 -98 -46 -182 -85 -186 -85 -4 0 -24 32 -43 70 l-35 70 72 34 c75 34 398
185 658 306 l145 68 33 -65 c18 -36 31 -70 29 -77z m-17114 -483 c2 -5 7 -40
11 -79 l7 -71 -43 -7 c-60 -10 -107 -42 -129 -90 -51 -113 15 -219 166 -265
139 -43 308 -51 373 -17 67 35 108 109 96 173 -8 43 -65 107 -119 133 -25 12
-45 26 -45 31 0 5 18 39 41 75 l41 65 57 -32 c130 -72 194 -170 194 -296 -1
-156 -100 -275 -267 -319 -84 -22 -238 -18 -350 10 -275 70 -415 247 -362 456
27 109 97 186 198 221 54 19 123 25 131 12z m17365 -307 c8 -38 10 -72 5 -76
-4 -3 -132 -30 -283 -59 -151 -29 -286 -56 -299 -60 -28 -8 -47 -2 224 -76 94
-26 228 -63 300 -84 l129 -36 14 -68 c7 -38 11 -74 9 -81 -3 -6 -58 -22 -123
-34 -66 -13 -270 -52 -454 -88 -184 -36 -341 -66 -349 -67 -10 -1 -18 20 -29
71 -8 40 -13 74 -11 76 2 2 139 29 304 61 165 32 293 61 285 64 -8 2 -159 46
-335 96 l-319 91 -13 65 c-6 35 -12 71 -12 80 -1 12 39 23 192 53 105 20 314
61 462 91 149 29 274 52 280 51 5 -1 16 -33 23 -70z m-17203 -511 c163 -48
261 -120 316 -230 30 -61 31 -69 27 -157 -7 -170 -85 -283 -231 -334 -149 -53
-388 -27 -550 58 -72 39 -148 112 -178 175 -20 41 -24 63 -24 148 0 93 2 105
33 167 49 100 132 163 257 195 78 20 241 10 350 -22z m17365 -271 c7 -37 9
-69 4 -74 -5 -4 -131 -31 -281 -60 -248 -47 -340 -67 -321 -69 15 -2 661 -182
668 -186 8 -5 35 -154 29 -158 -2 -2 -175 -36 -384 -77 -209 -40 -419 -80
-467 -90 -100 -19 -88 -27 -108 73 -7 32 -10 60 -8 61 1 2 41 10 88 19 210 39
503 97 506 100 2 2 -143 46 -323 97 -181 51 -331 97 -334 102 -8 12 -32 148
-28 152 7 6 934 183 940 180 4 -2 12 -33 19 -70z m270 -41 c0 -10 3 -28 6 -40
5 -16 2 -23 -8 -23 -9 0 -28 -12 -43 -27 -23 -24 -26 -34 -22 -68 7 -48 45
-85 86 -85 25 0 29 -5 34 -32 6 -42 -7 -50 -63 -42 -83 11 -130 51 -150 125
-21 76 25 156 110 193 45 20 50 20 50 -1z m-18134 -933 c21 -104 43 -190 49
-190 9 0 334 68 644 134 63 14 118 23 121 21 8 -5 34 -145 28 -151 -3 -2 -211
-48 -464 -102 -398 -85 -460 -96 -466 -83 -4 9 -30 126 -58 261 -28 135 -53
250 -55 257 -2 7 20 17 58 26 112 26 99 42 143 -173z m16986 -250 l57 -11 -6
-65 c-7 -71 1 -86 63 -125 l32 -19 314 65 c172 36 332 69 355 75 74 18 72 20
54 -70 -9 -43 -20 -83 -26 -89 -5 -5 -121 -26 -257 -48 -137 -21 -248 -40
-248 -43 0 -3 94 -56 208 -117 115 -62 215 -119 224 -125 15 -12 15 -19 1 -91
-9 -43 -19 -76 -23 -75 -34 13 -730 439 -774 474 -77 60 -103 116 -87 183 17
69 31 100 44 96 7 -2 38 -9 69 -15z m-16033 -471 c7 -38 11 -72 8 -75 -2 -3
-135 -33 -296 -67 -160 -34 -291 -65 -291 -69 0 -5 7 -8 16 -8 23 0 627 -162
640 -171 11 -9 40 -147 32 -154 -2 -2 -163 -38 -358 -79 -195 -42 -405 -86
-467 -100 l-111 -24 -16 70 c-19 85 -19 88 -3 88 6 0 144 27 306 62 195 41
287 65 275 70 -11 4 -154 42 -318 84 -165 42 -309 80 -322 84 -17 7 -25 24
-38 81 -9 40 -13 76 -9 79 5 4 143 35 308 70 165 34 368 78 450 96 83 18 157
33 166 33 12 1 19 -16 28 -70z m16052 -250 c95 -39 291 -118 434 -175 142 -58
261 -107 263 -109 6 -5 -50 -145 -58 -145 -3 0 -83 31 -177 69 l-171 69 -57
-141 c-31 -77 -53 -143 -48 -147 4 -5 78 -36 163 -71 85 -34 159 -66 164 -70
8 -7 -39 -149 -50 -149 -3 0 -141 55 -639 257 -115 47 -220 89 -232 94 l-22 8
31 75 30 75 42 -16 c22 -9 110 -45 194 -79 152 -63 153 -63 162 -41 6 12 32
76 59 142 49 119 49 120 27 131 -11 6 -97 42 -191 79 -93 38 -171 69 -173 70
-7 5 54 145 63 145 6 0 90 -32 186 -71z m-17090 -89 c75 -39 105 -126 71 -204
-21 -47 -78 -93 -121 -98 -21 -3 -26 2 -32 30 -6 29 -4 35 16 42 29 11 55 48
55 78 0 54 -57 113 -96 98 -16 -6 -20 -1 -29 42 l-7 32 52 0 c31 0 66 -8 91
-20z m1254 -429 c23 -43 32 -67 25 -71 -6 -4 -128 -72 -270 -151 -142 -79
-258 -144 -257 -145 1 -2 155 4 342 11 187 7 343 11 347 9 9 -6 81 -135 76
-139 -5 -5 -818 -455 -831 -460 -7 -3 -26 22 -46 61 -28 54 -32 67 -20 75 8 5
130 73 271 151 141 78 255 144 253 146 -3 4 -418 -13 -596 -24 l-96 -6 -41 71
c-37 64 -39 72 -24 80 196 111 827 459 829 458 1 -1 18 -31 38 -66z m15730
-417 c198 -138 371 -260 384 -271 l24 -19 -44 -61 -44 -60 -255 178 c-140 98
-255 177 -257 175 -1 -1 72 -139 163 -306 183 -337 174 -303 108 -393 l-34
-47 -73 51 c-39 28 -217 152 -394 276 l-322 226 41 61 c23 33 42 62 43 64 1 1
114 -76 251 -172 137 -96 250 -173 252 -171 2 2 -69 138 -158 304 l-161 301
46 65 c29 40 51 62 58 58 7 -4 174 -120 372 -259z m-15360 -211 c28 -36 51
-69 53 -73 2 -4 -36 -72 -84 -151 -103 -171 -128 -227 -114 -264 5 -14 13 -25
17 -25 5 0 80 57 167 125 177 138 162 135 223 53 30 -42 34 -52 22 -63 -8 -8
-178 -142 -379 -298 l-365 -285 -47 62 c-26 33 -48 63 -47 66 0 3 57 49 127
102 70 54 142 110 161 126 l34 28 -36 18 c-37 17 -37 17 -171 -29 -102 -34
-150 -45 -196 -45 -61 0 -62 0 -121 57 -33 31 -58 60 -57 64 2 4 26 25 55 48
l52 40 36 -36 c33 -33 39 -35 78 -30 23 4 78 20 122 38 54 21 97 31 133 31
l52 0 0 47 c0 33 10 68 36 121 46 97 184 340 193 340 3 -1 29 -31 56 -67z
m14897 -474 c205 -160 375 -293 377 -295 6 -6 -230 -302 -274 -343 -41 -37
-95 -61 -141 -61 -48 0 -123 32 -169 72 -54 48 -84 105 -85 161 0 20 -2 37 -4
37 -2 0 -20 -7 -39 -15 -54 -23 -116 -19 -175 11 -70 35 -147 121 -167 186
-21 72 -19 97 13 160 27 53 270 376 284 377 4 1 175 -130 380 -290z m-14369
-177 c56 -25 128 -94 158 -154 31 -60 38 -177 14 -249 -28 -87 -74 -159 -158
-246 -173 -180 -359 -250 -512 -192 -79 30 -174 122 -198 193 -31 91 -16 210
38 292 l16 24 48 -27 c97 -56 94 -53 75 -92 -28 -56 -30 -113 -5 -158 41 -73
113 -102 199 -79 102 26 263 171 322 289 35 69 37 106 11 163 -47 103 -150
116 -292 37 -7 -4 -74 146 -68 151 12 11 81 42 129 58 68 23 158 19 223 -10z
m13837 -516 c157 -174 286 -320 287 -324 1 -4 -96 -94 -215 -201 l-217 -193
-52 58 c-29 33 -53 62 -53 65 0 3 70 68 155 144 86 76 154 142 153 145 -2 4
-33 40 -70 81 l-68 73 -32 -30 c-18 -17 -85 -77 -148 -134 l-114 -103 -53 59
c-29 33 -53 61 -53 64 0 3 65 63 145 134 l144 129 -29 36 c-16 20 -56 64 -87
98 l-58 62 -160 -144 c-88 -80 -163 -145 -167 -145 -7 0 -99 104 -102 115 0 4
98 96 219 206 l220 198 35 -38 c19 -21 163 -181 320 -355z m-13278 -14 c26
-15 119 -87 208 -160 142 -118 159 -136 148 -150 -21 -27 -579 -696 -594 -711
-11 -12 -35 5 -157 108 -217 182 -237 208 -237 304 1 126 108 245 226 250 40
2 44 4 39 22 -4 11 -9 46 -12 77 -5 49 -1 66 21 112 72 147 241 217 358 148z
m12658 -482 c151 -209 275 -385 275 -392 0 -18 -260 -205 -333 -240 -70 -34
-109 -33 -187 1 -56 25 -135 107 -171 178 -25 50 -29 69 -29 140 0 74 3 85 30
124 27 38 88 91 191 166 l27 20 -98 134 c-54 74 -102 139 -107 146 -7 8 9 26
52 57 34 26 65 46 69 46 3 -1 130 -171 281 -380z m-11995 -31 c113 -21 217
-94 270 -190 41 -76 48 -205 15 -306 -41 -129 -148 -288 -243 -362 -88 -67
-160 -95 -247 -96 -66 0 -85 5 -142 33 -240 118 -283 363 -113 639 59 94 172
209 240 243 28 13 75 30 105 36 30 7 55 13 56 13 0 1 27 -4 59 -10z m11064
-120 c162 -37 330 -206 414 -417 28 -68 31 -89 32 -182 0 -95 -3 -110 -27
-155 -30 -58 -97 -123 -160 -157 -35 -18 -59 -23 -128 -23 -95 0 -146 18 -216
79 l-38 33 53 60 54 61 42 -30 c62 -44 121 -48 180 -13 111 64 112 191 3 366
-66 105 -120 163 -180 193 -64 32 -111 33 -162 3 -71 -40 -93 -119 -61 -222 8
-27 13 -50 12 -51 -14 -9 -159 -29 -163 -22 -16 26 -34 120 -34 178 1 105 49
191 141 250 82 53 155 68 238 49z m-10261 -336 c82 -45 77 -40 65 -55 -16 -20
-363 -675 -363 -685 0 -4 45 -32 100 -61 l100 -53 -35 -70 c-20 -38 -40 -69
-46 -69 -7 0 -77 35 -158 79 -80 43 -200 106 -266 141 -66 35 -121 64 -123 66
-5 3 68 144 75 144 3 0 48 -22 99 -50 51 -27 96 -50 101 -50 4 0 91 158 193
350 102 192 187 350 188 350 2 0 34 -17 70 -37z m9834 -387 c109 -233 200
-430 203 -438 4 -9 -16 -24 -61 -46 -36 -18 -68 -31 -70 -29 -3 3 -229 484
-260 552 -9 22 -21 -229 -23 -518 l-1 -167 -75 -37 c-41 -20 -76 -35 -78 -33
-2 3 -54 115 -117 250 -62 135 -153 329 -201 433 l-88 187 59 30 c33 17 65 30
72 30 7 0 69 -122 138 -271 69 -149 128 -272 131 -274 3 -3 9 127 13 288 4
160 9 316 12 345 l6 53 67 34 c36 19 68 34 71 34 3 1 94 -190 202 -423z
m-9156 98 c104 -49 165 -136 185 -263 35 -229 -127 -560 -317 -648 -126 -58
-285 -25 -379 79 -54 60 -75 120 -75 215 l0 73 54 0 c29 0 67 -3 83 -6 27 -5
29 -8 29 -59 1 -67 27 -112 80 -142 132 -76 264 36 343 291 53 170 7 299 -115
322 -48 9 -113 -25 -164 -84 l-44 -50 -58 51 c-31 29 -58 57 -58 63 0 17 97
121 136 145 91 56 199 61 300 13z m8207 -454 c77 -201 141 -367 143 -369 3 -4
117 37 204 73 12 5 22 -12 44 -69 16 -42 26 -78 23 -81 -7 -7 -579 -225 -581
-222 -9 14 -57 150 -55 152 2 1 50 20 107 41 56 21 102 43 102 48 0 5 -63 174
-140 375 -77 201 -139 366 -138 367 11 8 135 53 142 51 5 -1 72 -166 149 -366z
m-7412 161 c80 -31 142 -89 181 -169 32 -65 33 -70 33 -197 -1 -121 -3 -137
-33 -225 -42 -121 -83 -192 -149 -258 -77 -77 -147 -107 -248 -106 -104 1
-177 29 -248 94 -79 72 -110 146 -115 276 -10 244 116 496 292 585 57 28 67
30 146 27 56 -3 104 -12 141 -27z m6938 -436 c67 -247 121 -455 121 -461 0 -8
-486 -146 -554 -158 -14 -2 -56 155 -42 159 6 2 99 27 207 56 l196 51 -27 102
c-16 55 -32 100 -36 100 -5 -1 -87 -23 -182 -49 -96 -25 -179 -44 -186 -42
-11 4 -53 144 -45 151 2 1 87 24 189 51 102 26 186 49 187 49 7 5 -67 251 -75
249 -5 -1 -97 -25 -203 -54 -107 -28 -198 -52 -203 -53 -5 0 -19 34 -31 76
l-22 77 31 10 c17 6 117 33 221 60 105 28 219 59 255 69 36 10 68 16 72 13 4
-3 61 -208 127 -456z m-999 220 c0 -10 162 -770 165 -773 1 -1 44 7 96 18 142
32 130 37 149 -53 12 -55 14 -80 6 -82 -20 -6 -585 -125 -595 -125 -10 0 -47
148 -39 155 2 3 54 15 114 29 60 13 108 27 107 32 0 5 -38 180 -82 388 -45
209 -79 381 -76 384 5 5 112 29 138 31 9 1 17 -1 17 -4z m-4982 -66 c28 -7 52
-16 52 -22 0 -18 -222 -903 -229 -916 -6 -9 -46 -2 -169 29 -267 67 -307 89
-347 194 -38 100 1 270 82 358 80 84 160 96 343 48 41 -10 76 -17 78 -15 2 2
22 75 43 162 50 199 45 186 72 179 12 -3 46 -11 75 -17z m1382 -234 c0 -3 -18
-28 -40 -56 -42 -53 -87 -141 -114 -222 -40 -121 -45 -311 -11 -442 20 -78 82
-208 128 -268 21 -26 37 -49 37 -52 0 -3 -24 -5 -53 -5 -51 0 -54 1 -89 48
-64 86 -87 127 -118 209 -89 246 -48 522 111 736 42 57 42 57 96 57 29 0 53
-2 53 -5z m2406 -57 c105 -141 148 -275 148 -463 1 -189 -40 -318 -148 -462
l-46 -63 -55 0 -56 0 46 64 c59 84 101 176 126 284 18 72 20 108 16 212 -7
177 -44 287 -144 428 l-44 62 56 0 55 0 46 -62z m-2028 -101 c50 -27 82 -103
81 -192 0 -90 -23 -149 -72 -189 -37 -29 -44 -31 -140 -34 l-102 -4 3 -144 3
-144 -33 0 -33 0 2 362 c2 200 3 365 3 367 0 1 57 1 128 -1 97 -3 135 -8 160
-21z m304 -261 l3 -284 127 281 127 282 33 0 33 0 3 -362 2 -363 -32 0 -33 0
2 282 c2 155 -1 278 -6 272 -4 -5 -63 -132 -131 -281 l-123 -273 -33 0 -34 0
0 365 0 365 30 0 30 0 2 -284z m578 134 l0 -150 130 0 130 0 0 151 0 150 33
-3 32 -3 3 -362 2 -363 -35 0 -35 0 0 170 0 170 -130 0 -130 0 0 -170 0 -170
-35 0 -35 0 0 365 0 365 35 0 35 0 0 -150z m611 25 c32 -69 59 -130 59 -135 0
-29 22 4 82 123 65 130 67 132 102 135 20 2 36 1 36 -3 0 -3 -38 -81 -85 -174
l-84 -169 89 -186 c50 -102 90 -188 90 -191 0 -3 -17 -5 -38 -5 l-38 0 -74
149 -74 150 -77 -147 c-76 -147 -76 -147 -114 -150 -20 -2 -35 0 -33 5 2 4 44
89 95 189 l91 180 -84 173 c-46 96 -84 175 -84 177 0 2 18 4 41 4 l40 0 60
-125z"/>
<path d="M8547 15950 c-43 -4 -80 -10 -83 -13 -8 -7 7 -222 15 -236 10 -15
225 6 264 25 59 31 74 139 26 190 -24 26 -78 45 -119 43 -14 -1 -60 -5 -103
-9z"/>
<path d="M12685 16071 c-75 -35 -126 -112 -164 -251 -63 -227 25 -397 196
-377 91 10 170 98 214 237 26 83 36 224 19 274 -36 110 -161 165 -265 117z"/>
<path d="M5285 15499 c-55 -22 -104 -44 -108 -48 -8 -8 55 -173 74 -195 10
-11 198 72 227 101 53 53 2 183 -73 183 -11 0 -65 -19 -120 -41z"/>
<path d="M5520 15181 c-49 -15 -200 -83 -200 -90 0 -8 74 -181 90 -211 9 -17
18 -14 114 28 58 25 116 55 131 66 37 30 43 83 15 141 -32 65 -81 87 -150 66z"/>
<path d="M14345 15492 c-54 -25 -118 -99 -161 -186 -80 -162 -84 -280 -12
-362 41 -47 77 -64 135 -64 97 1 181 68 246 197 94 186 88 332 -15 401 -53 34
-136 41 -193 14z"/>
<path d="M9702 14880 c-337 -43 -836 -279 -1456 -690 l-199 -132 -96 27 c-187
54 -506 177 -673 261 -37 19 -73 34 -81 34 -7 0 -61 -19 -120 -43 l-108 -43
93 -52 c189 -104 429 -208 670 -290 60 -21 108 -39 107 -42 0 -3 -38 -34 -85
-68 -144 -109 -366 -305 -531 -470 -266 -266 -458 -501 -664 -812 -71 -107
-134 -203 -141 -212 -12 -16 -26 -14 -208 27 -465 105 -1057 274 -1347 385
l-71 28 -49 -56 c-93 -108 -89 -99 -46 -117 82 -35 549 -187 748 -244 227 -65
536 -143 735 -186 69 -15 126 -29 128 -30 2 -2 -24 -57 -57 -124 -143 -285
-278 -645 -351 -941 -11 -47 -23 -93 -26 -102 -5 -16 4 -18 98 -18 l103 0 19
78 c45 186 155 498 256 722 40 89 153 316 164 327 1 1 98 -16 215 -38 204 -37
516 -89 540 -89 7 0 11 31 11 94 0 105 5 99 -80 111 -76 11 -575 97 -578 100
-2 2 20 41 50 87 325 509 753 967 1277 1366 73 56 136 102 140 102 3 0 51 -11
106 -25 213 -54 724 -145 815 -145 16 0 30 -4 30 -8 0 -5 -29 -75 -65 -156
-116 -265 -295 -753 -271 -742 139 61 198 86 206 86 13 0 27 31 100 230 62
168 159 398 212 504 l30 59 66 -6 c37 -3 185 -12 330 -18 l262 -13 0 -280 0
-281 95 3 95 3 0 278 0 279 158 6 c175 8 422 24 465 31 27 5 30 1 77 -99 68
-143 168 -385 226 -547 l49 -136 115 -50 c63 -28 116 -49 118 -48 10 9 -188
535 -287 759 -33 77 -60 140 -58 142 1 1 70 12 152 24 203 29 479 82 653 125
l143 35 117 -88 c567 -429 997 -892 1345 -1449 31 -50 46 -42 -148 -77 -283
-50 -651 -104 -932 -137 l-102 -12 71 -78 c38 -42 78 -88 87 -102 9 -13 57
-78 107 -144 195 -258 319 -489 418 -783 l43 -124 117 -24 c65 -13 120 -21
123 -18 8 8 -110 236 -178 345 -133 211 -299 419 -497 623 -112 115 -122 128
-101 132 13 3 94 15 179 26 271 36 418 59 683 106 142 25 260 44 262 42 2 -2
42 -82 89 -178 172 -348 285 -678 379 -1105 3 -11 5 26 6 83 l1 102 75 0 75 0
-6 28 c-46 195 -134 472 -216 677 -46 114 -162 367 -205 447 -2 3 40 16 94 28
489 108 1011 263 1391 412 l152 60 -22 27 c-13 14 -43 49 -67 77 l-44 51 -86
-34 c-373 -148 -889 -300 -1373 -408 l-148 -32 -26 46 c-52 89 -195 303 -277
414 -288 392 -700 808 -1079 1092 -37 28 -67 52 -67 55 -1 3 63 27 142 54 78
27 205 75 282 108 169 72 438 209 427 219 -4 4 -55 25 -114 49 l-106 41 -114
-54 c-173 -83 -324 -144 -533 -212 l-189 -63 -101 67 c-389 261 -870 505
-1370 698 l-140 53 -280 5 c-154 2 -313 0 -353 -5z m-81 -277 c-113 -137 -309
-437 -426 -656 -46 -87 -61 -107 -79 -107 -90 0 -786 117 -805 136 -6 6 -7 5
109 77 336 206 753 413 1140 566 41 16 81 30 88 30 7 1 -5 -20 -27 -46z m929
-28 c211 -86 392 -169 600 -276 188 -97 530 -297 530 -310 0 -27 -809 -167
-818 -141 -1 5 -41 79 -88 163 -97 174 -240 394 -351 542 -87 115 -97 113 127
22z m-642 -362 l-3 -418 -165 3 c-190 4 -377 16 -386 24 -12 13 183 337 309
512 92 128 228 296 240 296 4 0 6 -188 5 -417z m312 282 c120 -150 252 -345
359 -532 44 -76 78 -139 77 -140 -3 -4 -273 -21 -423 -27 l-133 -6 0 421 c0
269 3 418 10 414 5 -3 54 -62 110 -130z"/>
<path d="M7490 11955 l0 -875 200 0 200 0 21 43 c42 83 123 210 194 306 596
799 1673 1166 2605 886 130 -39 214 -72 345 -137 458 -227 826 -610 1083
-1124 65 -129 142 -310 142 -331 0 -5 -82 -14 -182 -21 -244 -17 -501 -50
-982 -128 -877 -142 -1132 -168 -1561 -161 -187 3 -335 10 -415 21 -163 22
-389 68 -514 106 -55 17 -101 30 -103 30 -1 0 -3 -83 -3 -184 l0 -184 28 -6
c124 -25 453 -63 712 -81 581 -41 1113 -7 2010 130 596 91 747 110 971 122
l119 6 0 -110 0 -111 -107 -6 c-235 -15 -526 -53 -963 -126 -721 -119 -1148
-158 -1620 -147 -274 7 -392 15 -650 48 -150 19 -422 62 -478 76 l-23 5 3
-153 3 -153 80 -23 c122 -36 403 -89 561 -107 209 -24 500 -30 724 -17 327 20
538 47 1150 146 658 107 857 131 1168 142 l193 6 -5 -24 c-72 -327 -157 -571
-287 -819 -248 -471 -612 -831 -1064 -1050 -246 -120 -437 -177 -730 -221
-148 -23 -492 -17 -649 9 -266 46 -455 106 -682 217 -443 216 -792 550 -1039
993 l-57 102 -199 0 -199 0 0 -870 0 -870 200 0 200 0 0 498 0 497 52 -60 c87
-102 269 -276 380 -362 372 -291 787 -471 1273 -550 145 -24 186 -27 440 -27
240 0 301 3 430 22 432 65 776 193 1100 407 646 429 1108 1158 1211 1910 10
72 21 134 25 138 16 19 337 -49 508 -107 41 -15 80 -26 88 -26 10 0 13 37 13
179 l0 180 -57 16 c-149 44 -401 96 -518 107 l-30 3 -3 109 -3 109 62 -7 c99
-10 300 -54 416 -91 60 -19 114 -35 121 -35 9 0 12 36 12 150 l0 149 -64 20
c-157 48 -499 121 -570 121 -20 0 -25 8 -35 58 -29 128 -105 335 -180 487
-142 286 -334 548 -596 811 -243 245 -472 412 -750 549 -254 124 -505 202
-780 241 -160 23 -610 26 -775 6 -528 -66 -980 -247 -1368 -550 -107 -82 -261
-235 -340 -335 l-62 -78 0 490 0 491 -200 0 -200 0 0 -875z"/>
<path d="M8097 12643 c-4 -3 -7 -69 -7 -145 l0 -138 103 78 c56 43 140 102
185 131 45 29 82 56 82 60 0 14 -350 27 -363 14z"/>
<path d="M9852 12199 c-351 -34 -729 -168 -1029 -365 -272 -179 -525 -443
-683 -710 -49 -82 -50 -87 -50 -164 l0 -80 -215 0 -215 0 0 -192 0 -193 302 0
303 0 -1 -60 c-1 -33 -5 -126 -9 -208 l-7 -148 -334 3 -333 3 -3 -25 -3 -25
-340 0 c-332 0 -340 0 -343 20 -2 11 -8 24 -13 30 -5 5 -9 -32 -9 -93 l0 -102
688 0 689 0 6 -332 c4 -183 13 -409 22 -503 8 -93 15 -173 15 -177 0 -4 -14
-8 -31 -10 l-31 -3 47 -65 c77 -104 201 -243 285 -319 43 -39 81 -71 84 -71 3
0 -14 28 -38 63 -71 102 -97 153 -102 199 -2 24 -10 106 -18 183 -9 77 -20
223 -26 325 -6 102 -13 218 -16 257 l-6 73 -61 18 -62 18 3 370 c1 203 5 496
8 650 l6 282 102 -34 101 -35 15 23 c306 457 745 782 1256 928 34 10 71 21 83
25 l21 6 0 -571 0 -570 83 6 c45 3 88 7 95 10 9 3 12 125 12 567 l0 564 328 8
c180 5 352 8 382 7 102 -4 352 -83 502 -158 107 -54 318 -185 366 -227 85 -77
-92 135 -205 244 -429 415 -1015 617 -1621 558z m621 -386 c-24 -2 -62 -2 -85
0 -24 2 -5 4 42 4 47 0 66 -2 43 -4z m-190 -10 c-13 -2 -35 -2 -50 0 -16 2 -5
4 22 4 28 0 40 -2 28 -4z m360 0 c-13 -2 -35 -2 -50 0 -16 2 -5 4 22 4 28 0
40 -2 28 -4z m-470 -10 c-7 -2 -21 -2 -30 0 -10 3 -4 5 12 5 17 0 24 -2 18 -5z
m550 0 c-7 -2 -21 -2 -30 0 -10 3 -4 5 12 5 17 0 24 -2 18 -5z m-620 -10 c-7
-2 -19 -2 -25 0 -7 3 -2 5 12 5 14 0 19 -2 13 -5z m-60 -10 c-7 -2 -19 -2 -25
0 -7 3 -2 5 12 5 14 0 19 -2 13 -5z m-50 -10 c-7 -2 -19 -2 -25 0 -7 3 -2 5
12 5 14 0 19 -2 13 -5z m-46 -9 c-3 -3 -12 -4 -19 -1 -8 3 -5 6 6 6 11 1 17
-2 13 -5z m-1640 -1270 c-3 -3 -12 -4 -19 -1 -8 3 -5 6 6 6 11 1 17 -2 13 -5z
m183 -1799 c0 -5 -5 -3 -10 5 -5 8 -10 20 -10 25 0 6 5 3 10 -5 5 -8 10 -19
10 -25z"/>
<path d="M11410 11555 c0 -3 13 -87 30 -188 24 -146 70 -488 70 -517 0 -7 178
15 186 23 5 5 -35 327 -59 476 l-12 75 -67 45 c-80 54 -148 94 -148 86z"/>
<path d="M14967 10773 c-4 -3 -7 -66 -7 -139 l0 -133 83 -3 82 -3 3 -407 3
-408 -136 0 c-127 0 -140 2 -193 27 -75 35 -154 111 -183 176 -23 51 -24 60
-24 327 l0 275 48 3 48 3 -3 137 -3 137 -252 3 -253 2 0 -140 0 -140 65 0 65
0 0 -258 c0 -297 9 -355 81 -501 92 -187 266 -296 514 -322 55 -6 125 -13 155
-17 l55 -7 3 -252 3 -253 -265 0 -266 0 0 69 0 68 -37 7 c-21 3 -77 6 -125 6
l-88 0 0 -207 0 -208 467 5 c258 3 478 10 491 14 l22 8 0 1069 0 1069 -173 0
c-96 0 -177 -3 -180 -7z"/>
<path d="M15350 9725 c0 -580 4 -1055 8 -1055 17 0 88 58 145 118 l57 61 -2
963 -3 963 -102 3 -103 3 0 -1056z"/>
<path d="M15584 10771 c-2 -3 -4 -428 -4 -945 0 -816 2 -938 15 -925 31 31
115 184 147 267 l33 87 -2 450 c-2 248 -6 525 -9 618 l-6 167 76 0 76 0 0 140
0 139 -161 3 c-88 2 -163 1 -165 -1z"/>
<path d="M4098 10638 c-3 -68 -4 -126 -1 -130 2 -5 33 -8 69 -8 l64 0 0 -402
c0 -222 3 -589 7 -815 l6 -413 -71 0 -72 0 0 -115 0 -115 285 0 285 0 0 1060
0 1060 -284 0 -283 0 -5 -122z"/>
<path d="M4700 9700 l0 -1060 170 0 170 0 0 115 0 115 -65 0 -65 0 0 268 0
268 153 11 c251 20 386 71 499 191 107 115 147 232 155 458 4 121 2 167 -11
227 -72 321 -344 467 -871 467 l-135 0 0 -1060z m451 770 c75 -14 167 -60 213
-106 21 -22 53 -68 70 -104 29 -61 31 -72 31 -180 0 -104 -3 -121 -27 -172
-48 -104 -119 -170 -226 -212 -60 -23 -185 -39 -243 -31 l-49 7 0 404 0 404
89 0 c48 0 112 -5 142 -10z"/>
<path d="M5020 10003 l0 -98 147 0 c115 0 150 3 157 14 4 7 11 51 14 97 l5 84
-162 0 -161 0 0 -97z"/>
<path d="M5860 10625 l0 -135 75 0 75 0 0 -805 0 -805 -75 0 -75 0 0 -120 0
-120 165 0 165 0 0 1060 0 1060 -165 0 -165 0 0 -135z"/>
<path d="M6220 9700 l0 -1060 100 0 100 0 0 1060 0 1060 -100 0 -100 0 0
-1060z"/>
<path d="M6450 9700 l0 -1060 180 0 180 0 0 120 0 120 -75 0 -75 0 0 800 0
800 118 1 c64 1 162 2 217 3 l100 1 3 -122 3 -123 134 0 135 0 0 260 0 260
-460 0 -460 0 0 -1060z"/>
<path d="M13610 9876 l0 -514 -172 59 c-208 73 -391 127 -437 131 l-33 3 -24
-115 c-167 -809 -710 -1559 -1419 -1963 -419 -239 -862 -358 -1391 -374 -548
-17 -1066 103 -1527 354 -124 67 -324 199 -432 286 l-80 65 -3 -349 -2 -349
-215 0 -215 0 0 -195 0 -195 400 0 400 0 2 351 3 351 75 -63 c62 -53 146 -114
296 -217 11 -7 1 -3 -21 8 -22 12 -77 47 -122 80 -46 32 -83 55 -83 50 0 -18
94 -290 146 -422 67 -169 179 -421 233 -524 22 -43 39 -79 38 -80 -1 -1 -85
-14 -187 -28 -222 -33 -453 -77 -612 -117 l-117 -29 -133 96 c-515 374 -951
826 -1285 1331 -50 76 -72 118 -64 122 12 8 356 70 539 97 l112 17 0 99 0 100
-27 -6 c-16 -3 -127 -22 -248 -41 -121 -20 -278 -47 -349 -61 -71 -14 -134
-23 -141 -20 -18 6 -181 341 -242 493 l-48 123 -102 0 -103 0 21 -52 c75 -193
101 -252 180 -415 83 -174 87 -183 66 -188 -12 -3 -90 -21 -174 -40 -393 -90
-741 -187 -1108 -310 -137 -46 -263 -88 -278 -94 l-28 -11 72 -80 c70 -77 73
-79 98 -66 46 24 482 163 707 226 323 90 829 210 837 199 2 -2 33 -53 70 -113
133 -213 318 -459 515 -679 206 -231 547 -542 779 -712 45 -33 82 -62 83 -65
0 -3 -53 -23 -117 -44 -170 -55 -407 -153 -567 -233 l-140 -70 120 -47 120
-47 89 42 c186 86 639 249 691 249 9 0 86 -42 172 -94 478 -286 881 -480 1291
-620 l133 -46 325 0 c351 0 401 5 607 65 292 84 708 293 1159 580 l177 113
133 -39 c156 -47 375 -130 539 -204 l116 -52 113 44 c63 24 115 46 118 48 7 8
-334 169 -459 218 -63 24 -168 62 -232 83 -64 22 -116 42 -115 45 1 4 47 40
102 82 512 385 966 876 1296 1402 36 58 68 107 71 110 13 14 577 -125 893
-220 248 -75 595 -195 647 -225 13 -8 30 6 87 72 39 45 68 85 64 88 -14 13
-405 147 -608 209 -256 78 -508 146 -760 206 -110 25 -205 48 -212 50 -7 2 3
31 27 77 95 181 229 509 294 721 86 276 96 329 96 495 l0 152 29 0 c28 0 29 1
39 78 6 42 16 120 22 172 l11 95 -36 79 c-20 43 -48 122 -63 175 -23 86 -26
115 -26 273 l-1 178 -31 0 -31 0 5 -105 5 -105 -36 0 -36 0 -3 103 -3 102
-155 46 c-85 26 -167 49 -182 53 l-28 6 0 -514z m441 -91 c-3 -153 -47 -570
-66 -620 -2 -5 -4 156 -4 358 l-1 368 36 -3 37 -3 -2 -100z m-591 -640 c169
-43 508 -163 493 -174 -5 -3 -24 -62 -42 -131 -73 -278 -165 -525 -298 -800
-116 -241 -98 -221 -180 -203 -37 8 -187 34 -333 59 -145 25 -266 46 -268 48
-2 2 12 26 31 53 197 275 378 697 447 1038 27 137 27 135 43 135 7 0 55 -11
107 -25z m-655 -1252 c-16 -21 -44 -57 -63 -81 -19 -24 -33 -44 -31 -46 2 -2
69 -13 149 -25 195 -31 533 -90 538 -96 5 -5 -157 -248 -246 -368 -299 -403
-721 -813 -1162 -1129 l-105 -75 -115 29 c-163 40 -448 95 -635 122 -88 12
-158 27 -156 32 165 342 244 522 237 541 -3 7 -2 12 2 11 4 -1 18 3 32 10 14
6 70 25 125 42 390 124 748 338 1066 637 83 79 275 292 338 376 24 31 46 57
48 57 3 0 -7 -17 -22 -37z m-3884 -794 c264 -155 574 -266 967 -345 l22 -4 0
-219 0 -219 -26 -5 c-15 -2 -79 -5 -143 -6 -122 -1 -427 -18 -474 -26 -26 -4
-30 1 -111 163 -85 169 -168 354 -213 472 -56 146 -82 220 -78 220 2 0 28 -14
56 -31z m2276 -305 c-3 -3 -12 -4 -19 -1 -8 3 -5 6 6 6 11 1 17 -2 13 -5z
m-40 -10 c-3 -3 -12 -4 -19 -1 -8 3 -5 6 6 6 11 1 17 -2 13 -5z m-44 -11 c-7
-2 -19 -2 -25 0 -7 3 -2 5 12 5 14 0 19 -2 13 -5z m-50 -10 c-7 -2 -19 -2 -25
0 -7 3 -2 5 12 5 14 0 19 -2 13 -5z m-74 -31 c-9 -27 -216 -453 -223 -460 -2
-1 -64 2 -137 9 -74 6 -222 14 -329 18 l-195 6 -3 213 -2 213 32 -5 c141 -22
543 -12 733 18 44 7 92 14 107 15 25 1 26 -1 17 -27z m-1016 1 c-7 -2 -21 -2
-30 0 -10 3 -4 5 12 5 17 0 24 -2 18 -5z m75 -10 c-10 -2 -26 -2 -35 0 -10 3
-2 5 17 5 19 0 27 -2 18 -5z m-138 -998 c0 -212 -2 -385 -4 -385 -9 0 -212
244 -289 347 -93 123 -271 392 -264 399 8 8 234 21 400 23 l157 1 0 -385z
m668 369 c39 -4 72 -10 72 -14 0 -17 -161 -257 -265 -395 -117 -156 -265 -333
-277 -334 -5 -1 -8 171 -8 381 l0 381 203 -6 c111 -4 235 -10 275 -13z m-1420
-70 c112 -191 330 -502 455 -647 27 -32 47 -60 45 -63 -6 -5 -294 103 -468
177 -243 103 -864 429 -847 445 17 18 572 113 775 133 7 0 25 -20 40 -45z
m1983 6 c172 -26 509 -92 509 -101 0 -16 -299 -183 -535 -299 -237 -116 -603
-269 -754 -315 -19 -6 -6 14 56 91 156 193 341 459 419 602 l29 54 71 -6 c39
-4 131 -15 205 -26z"/>
<path d="M3660 10000 l0 -100 185 0 185 0 0 100 0 100 -185 0 -185 0 0 -100z"/>
<path d="M14721 10028 c2 -126 -6 -119 142 -121 l127 -2 0 98 0 97 -135 0
-135 0 1 -72z"/>
<path d="M15972 10005 l4 -96 182 -2 182 -2 0 98 0 97 -186 0 -186 0 4 -95z"/>
<path d="M12095 9633 c-222 -14 -534 -54 -950 -124 -725 -120 -1018 -155
-1400 -165 -331 -10 -651 17 -943 77 -56 12 -104 20 -107 18 -2 -3 -5 -65 -6
-139 -1 -132 -1 -134 22 -143 13 -4 92 -28 174 -52 268 -77 569 -129 827 -141
62 -3 132 -7 156 -10 l42 -5 0 -404 0 -403 -37 -5 c-21 -2 -101 -5 -178 -6
-77 0 -239 -4 -360 -8 l-220 -6 65 -30 c185 -83 452 -147 620 -147 67 0 110
-4 110 -10 0 -6 38 -10 94 -10 72 0 95 3 99 14 5 12 27 14 124 9 96 -4 138 -1
223 16 131 27 269 69 390 120 l94 39 -184 6 c-177 5 -580 16 -627 16 l-23 0 0
400 0 400 -92 2 c-120 2 -83 5 187 17 341 16 640 51 1140 134 110 19 202 32
204 30 6 -5 -27 -359 -48 -507 l-18 -129 86 89 c143 147 138 137 155 309 8 83
16 174 18 203 3 49 2 52 -22 53 -36 1 32 17 165 38 l110 17 39 89 c47 112 126
344 118 348 -4 1 -25 1 -47 0z m-427 -500 c-10 -2 -26 -2 -35 0 -10 3 -2 5 17
5 19 0 27 -2 18 -5z m-65 -10 c-7 -2 -21 -2 -30 0 -10 3 -4 5 12 5 17 0 24 -2
18 -5z"/>
<path d="M5784 9556 c-3 -8 -1 -56 4 -108 l9 -93 2 108 c1 101 -3 125 -15 93z"/>
<path d="M3213 14236 c-40 -29 -76 -56 -79 -59 -7 -6 124 -184 151 -207 10 -8
28 1 73 39 33 27 69 62 81 77 58 74 -14 204 -112 204 -35 0 -55 -10 -114 -54z"/>
<path d="M2621 13593 c4 -10 170 -295 176 -302 5 -6 99 86 124 121 l20 27
-162 81 c-88 45 -159 77 -158 73z"/>
<path d="M1991 12958 l-62 -93 28 -22 c15 -12 84 -63 152 -114 67 -50 165
-132 217 -182 52 -49 96 -88 98 -86 19 24 156 233 156 238 -1 6 -512 351 -522
351 -3 0 -33 -42 -67 -92z"/>
<path d="M1160 10659 c-56 -25 -77 -44 -101 -91 -48 -94 -8 -209 92 -267 103
-58 309 -85 402 -52 46 16 102 63 123 102 32 64 10 173 -48 226 -94 86 -357
133 -468 82z"/>
<path d="M17044 6972 c-79 -100 -104 -142 -104 -171 0 -39 38 -88 84 -111 54
-26 88 -20 134 24 54 50 146 176 136 185 -5 4 -50 39 -100 78 l-91 71 -59 -76z"/>
<path d="M17362 6698 c-38 -51 -72 -105 -75 -119 -9 -35 22 -88 64 -111 41
-22 68 -23 97 -3 31 22 154 183 148 193 -3 5 -41 37 -85 71 l-80 62 -69 -93z"/>
<path d="M3459 6082 c-61 -62 -64 -113 -9 -176 33 -37 169 -151 173 -145 2 2
38 45 80 96 42 50 77 94 77 96 0 3 -45 42 -100 86 -89 72 -105 81 -142 81 -34
0 -47 -6 -79 -38z"/>
<path d="M3219 5751 c-32 -32 -39 -46 -39 -78 0 -35 6 -46 48 -84 57 -54 137
-119 145 -119 3 0 36 37 73 81 l68 82 -39 35 c-22 19 -66 54 -99 78 -75 57
-105 58 -157 5z"/>
<path d="M16120 5592 c-58 -44 -78 -67 -89 -98 -13 -38 -13 -44 9 -88 27 -56
70 -86 122 -86 28 0 55 12 113 53 43 28 76 57 76 62 -2 12 -144 214 -151 214
-3 1 -39 -25 -80 -57z"/>
<path d="M4180 5578 c-58 -16 -170 -139 -221 -242 -53 -108 -62 -179 -31 -249
43 -96 166 -136 269 -86 102 49 232 249 241 368 12 161 -103 254 -258 209z"/>
<path d="M6380 4573 c-101 -36 -195 -202 -215 -380 -14 -121 45 -225 142 -252
47 -13 59 -13 106 0 99 27 188 173 217 355 25 158 -61 286 -191 283 -24 0 -51
-3 -59 -6z"/>
<path d="M7064 3971 c-64 -40 -82 -155 -32 -208 21 -22 105 -54 180 -68 l34
-6 28 118 c16 65 31 123 33 129 5 13 -93 42 -164 50 -37 4 -55 1 -79 -15z"/>
<path d="M9143 3973 l-73 -4 0 -125 0 -126 94 4 c107 3 128 15 147 79 24 79
-18 182 -73 177 -13 -1 -56 -4 -95 -5z"/>
</g>
</svg>
