<?xml version="1.0" standalone="no"?>
<!DOCTYPE svg PUBLIC "-//W3C//DTD SVG 20010904//EN"
 "http://www.w3.org/TR/2001/REC-SVG-20010904/DTD/svg10.dtd">
<svg version="1.0" xmlns="http://www.w3.org/2000/svg"
 width="808.000000pt" height="632.000000pt" viewBox="0 0 808.000000 632.000000"
 preserveAspectRatio="xMidYMid meet">

<g transform="translate(0.000000,632.000000) scale(0.100000,-0.100000)"
fill="#000000" stroke="none">
<path d="M0 3160 l0 -3160 4040 0 4040 0 0 3160 0 3160 -4040 0 -4040 0 0
-3160z m3325 2690 c-4 -27 -3 -50 2 -50 5 0 8 -114 8 -252 0 -139 3 -275 7
-303 8 -55 27 -164 32 -180 2 -5 6 -23 10 -40 31 -123 58 -193 133 -346 114
-230 228 -352 518 -551 61 -42 122 -87 136 -100 14 -13 48 -42 75 -63 96 -78
302 -294 364 -384 14 -20 30 -42 37 -48 14 -16 83 -128 83 -136 0 -4 14 -29
30 -57 17 -28 30 -59 30 -70 0 -10 4 -21 9 -25 5 -3 15 -31 22 -63 7 -31 16
-62 21 -69 11 -14 23 -260 15 -295 -4 -14 -16 -28 -26 -31 -15 -4 -21 -15 -23
-47 -3 -40 -6 -44 -63 -76 -33 -19 -69 -38 -80 -44 -11 -6 -47 -26 -80 -45
-33 -19 -88 -49 -122 -67 -35 -17 -63 -35 -63 -40 0 -4 -5 -8 -11 -8 -6 0 -38
-16 -71 -36 -85 -49 -110 -53 -137 -19 -11 15 -21 34 -21 41 0 8 -4 14 -9 14
-5 0 -12 13 -16 30 -4 16 -10 30 -15 30 -5 0 -11 13 -15 30 -4 16 -10 30 -13
30 -4 0 -18 21 -32 48 -42 79 -85 143 -189 282 -84 111 -93 121 -243 269 -121
121 -182 175 -217 195 -9 5 -20 15 -24 23 -4 7 -14 13 -22 13 -7 0 -15 3 -17
8 -5 11 -66 52 -77 52 -6 0 -14 6 -18 13 -4 6 -30 23 -58 37 -27 14 -52 28
-55 31 -3 3 -32 18 -65 33 -33 15 -72 33 -87 41 -14 8 -33 15 -42 15 -9 0 -16
5 -16 10 0 6 -6 10 -14 10 -15 0 -124 70 -170 110 -50 42 -120 113 -146 148
-14 18 -33 43 -42 54 -10 12 -18 27 -18 33 0 7 -6 18 -14 24 -8 7 -18 26 -21
42 -4 16 -10 29 -14 29 -8 0 -14 17 -54 145 -20 63 -22 92 -22 290 0 223 6
285 46 450 10 45 19 91 19 103 0 12 4 22 8 22 4 0 13 24 19 53 18 83 44 171
54 182 5 5 9 16 9 25 0 8 7 28 15 44 8 15 15 33 15 40 1 6 9 29 20 51 11 22
19 48 20 57 0 9 4 19 9 22 5 3 14 26 20 52 16 64 38 94 68 94 21 0 24 -4 20
-22 -2 -13 -8 -30 -11 -39 -4 -10 -1 -23 8 -32 13 -12 16 -42 17 -149 0 -73 4
-164 9 -203 17 -141 32 -230 41 -240 5 -5 9 -19 9 -31 0 -50 67 -232 96 -261
8 -8 14 -19 14 -24 0 -5 4 -9 9 -9 5 0 11 17 14 38 24 177 53 339 83 452 19
74 40 155 46 180 6 25 13 47 17 50 3 3 18 39 32 80 47 133 64 175 71 178 4 2
10 19 14 38 3 19 10 34 14 34 4 0 13 21 20 48 12 51 34 82 57 82 12 0 14 -10
8 -50z m2185 -889 c0 -11 -16 -40 -35 -65 -37 -48 -49 -89 -14 -47 11 13 22
22 25 19 7 -7 -17 -58 -28 -58 -4 0 -8 -6 -8 -12 0 -7 -16 -44 -35 -83 -19
-38 -35 -74 -35 -78 0 -5 -7 -23 -15 -40 -21 -46 -75 -195 -86 -242 -6 -22
-16 -51 -22 -64 -20 -42 -13 -348 11 -485 12 -66 26 -124 32 -130 5 -5 10 -16
10 -24 0 -12 30 -88 49 -122 4 -8 30 -55 56 -105 27 -49 52 -91 57 -93 4 -2 8
-9 8 -16 0 -6 12 -28 26 -49 14 -21 43 -71 63 -111 21 -40 47 -82 57 -94 26
-30 130 -232 166 -320 53 -132 89 -368 58 -387 -5 -3 -10 -17 -10 -31 0 -25
-38 -124 -51 -134 -3 -3 -10 -16 -14 -28 -7 -23 -130 -153 -188 -199 -16 -12
-51 -35 -80 -50 -29 -16 -54 -31 -57 -34 -5 -6 -72 -43 -228 -125 -34 -19 -92
-50 -130 -70 -37 -20 -89 -48 -117 -62 -27 -15 -52 -29 -55 -32 -6 -6 -41 -26
-117 -66 -29 -16 -53 -32 -53 -36 0 -4 -6 -8 -13 -8 -7 0 -35 -15 -63 -33 -28
-19 -58 -36 -67 -40 -9 -3 -17 -11 -17 -17 0 -5 -6 -10 -13 -10 -6 0 -34 -16
-61 -35 -27 -19 -53 -35 -57 -35 -8 0 -105 -62 -126 -80 -7 -5 -15 -10 -19
-10 -4 0 -58 -35 -121 -78 -62 -42 -125 -83 -138 -90 -14 -7 -25 -17 -25 -23
0 -5 -6 -9 -13 -9 -8 0 -25 -9 -38 -21 -13 -11 -64 -50 -114 -85 -49 -36 -106
-77 -125 -92 -19 -15 -61 -48 -95 -75 -33 -26 -73 -57 -88 -70 -16 -12 -37
-29 -47 -38 -10 -8 -31 -24 -45 -35 -15 -10 -33 -25 -41 -32 -12 -11 -14 -11
-14 1 0 14 36 53 103 108 20 17 37 36 37 42 0 6 -9 2 -19 -9 -11 -10 -38 -35
-61 -54 -23 -19 -56 -48 -75 -65 -64 -57 -75 -65 -95 -65 -11 0 -20 4 -20 9 0
4 93 98 206 207 226 217 1262 1250 1307 1301 15 17 27 34 27 38 0 4 12 24 28
44 15 20 32 45 39 56 61 101 94 161 99 181 3 13 10 24 15 24 5 0 9 6 9 13 0 6
7 26 16 42 21 38 43 153 43 225 1 100 -39 289 -75 358 -8 15 -14 32 -14 39 0
6 -7 24 -15 40 -8 15 -24 54 -36 86 -13 31 -26 57 -30 57 -4 0 -10 20 -13 45
-4 25 -11 45 -16 45 -4 0 -11 19 -15 43 -4 23 -11 50 -16 59 -6 10 -14 44 -20
75 -5 32 -14 77 -20 100 -20 77 19 291 86 468 15 39 30 79 33 90 3 11 8 22 11
25 3 3 17 26 30 53 13 26 32 57 42 70 36 43 62 85 80 130 6 15 15 27 20 27 5
0 9 7 9 15 0 9 7 18 15 21 8 4 15 10 15 15 0 5 17 31 38 58 20 26 44 58 52 71
28 41 90 124 98 129 4 4 27 31 52 61 25 30 50 59 57 63 7 4 13 12 13 17 0 15
33 50 47 50 7 0 13 -9 13 -19z"/>
</g>
</svg>
