<?xml version="1.0" standalone="no"?>
<!DOCTYPE svg PUBLIC "-//W3C//DTD SVG 20010904//EN"
 "http://www.w3.org/TR/2001/REC-SVG-20010904/DTD/svg10.dtd">
<svg version="1.0" xmlns="http://www.w3.org/2000/svg"
 width="1000.000000pt" height="653.000000pt" viewBox="0 0 1000.000000 653.000000"
 preserveAspectRatio="xMidYMid meet">

<g transform="translate(0.000000,653.000000) scale(0.100000,-0.100000)"
fill="#000000" stroke="none">
<path d="M5925 6511 c-41 -25 -71 -61 -79 -93 -15 -66 30 -137 103 -159 38
-11 47 -10 86 9 46 22 85 79 85 122 0 43 -40 101 -83 121 -53 24 -74 24 -112
0z"/>
<path d="M6280 5121 c-227 -62 -383 -250 -398 -483 -6 -93 9 -158 56 -258 67
-143 200 -246 365 -284 86 -20 120 -20 210 0 137 31 255 108 328 216 174 255
96 600 -170 756 -65 38 -192 72 -265 71 -33 0 -90 -9 -126 -18z"/>
<path d="M4351 4812 c-41 -20 -71 -73 -71 -123 0 -53 60 -118 115 -126 83 -11
143 37 152 120 12 108 -97 180 -196 129z"/>
<path d="M2145 4789 c-115 -16 -222 -97 -272 -208 -21 -46 -26 -71 -26 -141 0
-95 19 -152 75 -223 58 -73 187 -137 276 -137 53 0 142 29 200 66 111 72 177
226 151 354 -40 195 -210 316 -404 289z"/>
<path d="M1015 3597 c-183 -48 -295 -195 -295 -387 0 -237 167 -400 410 -400
180 0 320 92 381 249 28 71 30 221 5 291 -39 107 -130 198 -236 236 -60 21
-202 27 -265 11z m226 -165 c42 -22 58 -38 79 -77 22 -43 25 -62 25 -151 0
-94 -2 -104 -30 -149 -42 -67 -96 -95 -187 -95 -72 0 -127 19 -159 56 -70 80
-86 224 -36 326 41 84 95 116 198 117 44 1 69 -5 110 -27z"/>
<path d="M20 3530 l0 -70 115 0 115 0 0 -320 0 -320 95 0 95 0 2 318 3 317
118 3 117 3 0 69 0 70 -330 0 -330 0 0 -70z"/>
<path d="M1640 3433 c0 -156 2 -172 24 -219 54 -117 131 -137 426 -111 l25 2
3 -142 3 -143 89 0 90 0 0 390 0 390 -90 0 -90 0 0 -174 c0 -149 -2 -175 -17
-187 -10 -9 -50 -15 -113 -17 -91 -4 -98 -2 -126 21 l-29 25 -3 166 -3 166
-95 0 -94 0 0 -167z"/>
<path d="M2470 3210 l0 -390 90 0 90 0 0 165 0 165 68 0 c77 0 82 -4 124 -80
96 -177 126 -224 144 -237 16 -10 48 -13 118 -11 l96 3 -93 160 c-119 207
-123 213 -166 235 l-36 18 29 13 c19 9 61 63 135 174 58 88 108 163 109 167 7
15 -182 9 -204 -6 -12 -8 -58 -74 -104 -146 -45 -72 -93 -138 -105 -146 -14
-9 -40 -14 -67 -12 l-43 3 -3 158 -3 157 -89 0 -90 0 0 -390z"/>
<path d="M3476 3477 c-61 -151 -116 -285 -200 -491 -37 -87 -66 -160 -66 -162
0 -2 40 -4 88 -4 105 0 108 2 142 103 l24 67 161 0 161 0 24 -67 c34 -101 37
-103 142 -103 48 0 88 2 88 4 0 2 -29 75 -66 162 -84 206 -139 340 -200 491
l-49 123 -100 0 -100 0 -49 -123z m202 -187 c27 -74 53 -145 56 -157 7 -23 7
-23 -102 -23 -60 0 -111 3 -115 6 -3 3 13 56 35 118 22 61 48 130 56 154 8 23
16 41 18 39 2 -1 25 -63 52 -137z"/>
<path d="M4350 3210 l0 -390 95 0 95 0 0 165 0 165 63 0 c34 0 68 -4 75 -8 11
-7 92 -137 92 -148 0 -9 75 -132 93 -151 19 -21 30 -23 119 -23 54 0 98 3 98
7 0 3 -45 86 -100 182 -83 146 -107 181 -140 201 l-39 24 35 30 c19 17 78 99
132 181 l98 150 -90 3 c-53 2 -99 -2 -111 -8 -19 -10 -40 -42 -152 -223 -45
-72 -66 -87 -124 -87 l-49 0 0 160 0 160 -95 0 -95 0 0 -390z"/>
<path d="M5160 3210 l0 -390 89 0 c70 0 93 4 110 18 15 13 225 345 328 520 4
8 7 -111 5 -262 l-3 -276 95 0 96 0 0 390 0 390 -86 0 c-84 0 -87 -1 -117 -33
-18 -18 -39 -46 -48 -62 -9 -17 -67 -111 -129 -210 -61 -99 -121 -197 -131
-217 -11 -21 -20 -38 -22 -38 -1 0 -1 126 1 280 l3 280 -96 0 -95 0 0 -390z"/>
<path d="M6040 3210 l0 -390 95 0 95 0 2 323 3 322 153 3 152 3 0 -326 0 -325
100 0 100 0 -2 388 -3 387 -347 3 -348 2 0 -390z"/>
<path d="M6890 3210 l0 -390 265 0 265 0 0 65 0 65 -170 0 -171 0 3 98 3 97
128 3 128 3 -3 62 -3 62 -128 3 -128 3 3 92 3 92 168 3 167 2 0 65 0 65 -265
0 -265 0 0 -390z"/>
<path d="M7530 3210 l0 -390 95 0 95 0 0 165 0 165 170 0 170 0 0 -165 0 -165
95 0 95 0 0 390 0 390 -95 0 -95 0 0 -165 0 -165 -170 0 -170 0 0 165 0 165
-95 0 -95 0 0 -390z"/>
<path d="M8410 3210 l0 -390 86 0 c80 0 87 2 113 28 25 25 247 379 301 480
l25 47 3 -278 2 -277 95 0 95 0 0 390 0 390 -89 0 c-95 0 -115 -10 -153 -71
-9 -13 -67 -107 -130 -209 -63 -102 -126 -205 -139 -230 l-24 -45 -3 278 -2
277 -90 0 -90 0 0 -390z"/>
<path d="M9510 3590 c-93 -19 -182 -94 -196 -165 -20 -109 17 -196 102 -238
49 -23 54 -33 24 -42 -25 -8 -47 -37 -149 -197 l-81 -128 99 0 c93 0 101 2
131 27 18 14 35 34 38 43 4 9 33 61 66 117 64 109 80 123 151 123 l45 0 0
-155 0 -155 95 0 95 0 0 390 0 390 -192 -1 c-106 -1 -209 -5 -228 -9z m228
-222 l3 -98 -90 0 c-50 0 -101 5 -114 11 -43 19 -59 81 -36 133 19 41 64 56
154 53 l80 -2 3 -97z"/>
<path d="M3354 2279 c-225 -29 -405 -213 -436 -444 -24 -176 23 -319 146 -441
112 -111 222 -157 371 -157 150 0 272 52 378 162 101 105 147 218 147 363 0
324 -277 560 -606 517z"/>
<path d="M5480 1882 c-75 -37 -102 -127 -57 -193 28 -42 60 -59 112 -59 148 0
185 198 48 256 -42 18 -61 18 -103 -4z"/>
<path d="M2733 1110 c-109 -49 -109 -190 0 -244 50 -24 98 -15 144 28 70 63
51 175 -37 218 -45 22 -56 22 -107 -2z"/>
<path d="M6255 1012 c-105 -32 -180 -91 -231 -185 -24 -44 -29 -67 -32 -144
-4 -86 -2 -96 26 -156 40 -87 91 -140 170 -179 61 -30 75 -33 157 -33 78 1 98
5 149 30 245 118 276 442 60 608 -85 65 -201 88 -299 59z"/>
</g>
</svg>
